<svg id="Layer_1" data-name="Layer 1" xmlns="http://www.w3.org/2000/svg" viewBox="0 0 208 208"><defs><style>.cls-1{fill:none;stroke:#231f20;stroke-miterlimit:10;stroke-width:8px;}.cls-2{fill:#231f20;}</style></defs><title>Adh</title><circle class="cls-1" cx="104" cy="104" r="100"/><path class="cls-2" d="M150,243c16.67-1.77,33.33-2.69,50-3.32l6.25-.25,6.25-.15L225,239c8.33-.13,16.67-.16,25-.23,8.33.08,16.67.1,25,.24s16.67.31,25,.71c16.67.62,33.33,1.54,50,3.3v.5l-100,.25-100-.25Z" transform="translate(-146 -139.28)"/><polygon class="cls-2" points="106.5 4 104 204 101.5 4 106.5 4"/><path class="cls-2" d="M170.85,304.39c2.18-15,5.41-29.86,9-44.62,1.86-7.36,3.89-14.69,6-22s4.6-14.52,7.18-21.71,5.39-14.32,8.57-21.33a189.2,189.2,0,0,1,10.73-20.59A94.46,94.46,0,0,1,227,155.29a45.63,45.63,0,0,1,10.19-7.51,29.35,29.35,0,0,1,13.06-3.56,28.28,28.28,0,0,1,13.23,3.18,43.65,43.65,0,0,1,10.34,7.47,89.78,89.78,0,0,1,14.52,19c2,3.36,3.85,6.78,5.58,10.24s3.36,7,4.9,10.49,3,7.07,4.38,10.64,2.67,7.18,3.93,10.78c2.49,7.22,4.85,14.46,6.94,21.78s4.06,14.66,5.89,22c3.55,14.77,6.72,29.6,9.19,44.57C320,275.5,311,246.61,299.82,218.77c-5.71-13.83-11.82-27.54-19.57-40-3.88-6.17-8.17-12.07-13.21-16.76a34.13,34.13,0,0,0-8-5.75,18.44,18.44,0,0,0-8.6-2.08,19.3,19.3,0,0,0-8.63,2.36,36.79,36.79,0,0,0-8,5.88,88,88,0,0,0-13.37,16.71c-7.89,12.35-14.21,26-20.08,39.72-2.92,6.9-5.57,13.93-8.23,21S187,254,184.55,261.15C179.66,275.43,175.19,289.86,170.85,304.39Z" transform="translate(-146 -139.28)"/><path class="cls-2" d="M171.67,184.9a70.93,70.93,0,0,0-1.55,7.73c-.39,2.63-.65,5.29-.79,8a68.84,68.84,0,0,0,.95,16,52.92,52.92,0,0,0,2.08,7.74,42.69,42.69,0,0,0,3.43,7.27,37.07,37.07,0,0,0,4.87,6.44,39.31,39.31,0,0,0,6.21,5.28,39.73,39.73,0,0,1-6.65-4.83,38.14,38.14,0,0,1-5.48-6.21,44.93,44.93,0,0,1-4.12-7.24,57.21,57.21,0,0,1-2.78-7.89,72.29,72.29,0,0,1-2.26-16.57c-.07-2.79,0-5.59.19-8.38a73.62,73.62,0,0,1,1-8.44Z" transform="translate(-146 -139.28)"/><path class="cls-2" d="M333.17,183.63a72,72,0,0,1,1.34,8.5,82.91,82.91,0,0,1,.45,8.48,67.1,67.1,0,0,1-2,16.82,51.21,51.21,0,0,1-2.85,8,40.09,40.09,0,0,1-4.33,7.24A37.25,37.25,0,0,1,313,243.28a36.55,36.55,0,0,0,11.7-11.34,41.66,41.66,0,0,0,5.77-15.06,64,64,0,0,0,.7-16.12,77.11,77.11,0,0,0-1-8,70.73,70.73,0,0,0-1.82-7.75Z" transform="translate(-146 -139.28)"/></svg>