<svg id="Layer_1" data-name="Layer 1" xmlns="http://www.w3.org/2000/svg" viewBox="0 0 369.46 130.77"><defs><style>.cls-1{fill:none;stroke:#231f20;stroke-miterlimit:10;stroke-width:3px;}.cls-2,.cls-3{fill:#231f20;}.cls-3{font-size:72px;font-family:Montserrat-SemiBold, Montserrat;font-weight:600;}.cls-4{letter-spacing:0em;}</style></defs><title>Adhyayan</title><circle class="cls-1" cx="190.39" cy="36.5" r="35"/><path class="cls-2" d="M244.22,171.69c5.83-.62,11.67-.94,17.5-1.16l2.19-.09,2.19-.05,4.37-.1c2.92,0,5.83-.06,8.75-.08s5.83,0,8.75.08,5.83.11,8.75.25c5.83.22,11.67.54,17.5,1.16v.17l-35,.09-35-.09Z" transform="translate(-88.83 -135.29)"/><polygon class="cls-2" points="191.26 1.5 190.39 71.5 189.51 1.5 191.26 1.5"/><path class="cls-2" d="M251.52,193.18c.76-5.25,1.89-10.46,3.15-15.62.65-2.58,1.36-5.14,2.1-7.7s1.61-5.08,2.51-7.6,1.89-5,3-7.47a65.64,65.64,0,0,1,3.76-7.2,32.84,32.84,0,0,1,5.13-6.6,15.91,15.91,0,0,1,3.57-2.63,10.27,10.27,0,0,1,4.57-1.24,9.82,9.82,0,0,1,4.63,1.11,15.31,15.31,0,0,1,3.62,2.61,31.6,31.6,0,0,1,5.08,6.65c.7,1.18,1.35,2.38,1.95,3.59s1.18,2.45,1.72,3.67,1.05,2.47,1.53,3.72.93,2.52,1.38,3.78c.87,2.52,1.69,5.06,2.42,7.62s1.43,5.13,2.07,7.7c1.24,5.17,2.35,10.36,3.21,15.6-3.2-10.11-6.35-20.22-10.26-30a95.56,95.56,0,0,0-6.85-14,29,29,0,0,0-4.63-5.87,11.85,11.85,0,0,0-2.8-2,6.53,6.53,0,0,0-3-.73,6.83,6.83,0,0,0-3,.83,12.8,12.8,0,0,0-2.8,2.06,31,31,0,0,0-4.68,5.84,95.35,95.35,0,0,0-7,13.91c-1,2.41-2,4.87-2.88,7.35s-1.8,4.95-2.66,7.45C254.6,183,253,188.09,251.52,193.18Z" transform="translate(-88.83 -135.29)"/><path class="cls-2" d="M252.32,151.48c-.12.37-.24.84-.34,1.28s-.18.89-.26,1.35c-.16.9-.27,1.82-.35,2.74a23.81,23.81,0,0,0,.2,5.53,19.16,19.16,0,0,0,.65,2.69,14.78,14.78,0,0,0,1.13,2.54,12.33,12.33,0,0,0,1.64,2.28,13.72,13.72,0,0,0,2.13,1.9,14.43,14.43,0,0,1-2.38-1.65,13.85,13.85,0,0,1-2-2.14,15.89,15.89,0,0,1-1.51-2.54,19.71,19.71,0,0,1-1.05-2.77,25.39,25.39,0,0,1-.93-5.87,29.42,29.42,0,0,1,0-3c0-.5.06-1,.11-1.5a15,15,0,0,1,.2-1.53Z" transform="translate(-88.83 -135.29)"/><path class="cls-2" d="M308.83,150.77c.13.56.19,1,.27,1.54s.12,1,.15,1.51a27.62,27.62,0,0,1,.1,3,23.93,23.93,0,0,1-.84,5.95,18.57,18.57,0,0,1-1.07,2.8,13.33,13.33,0,0,1-1.6,2.53,13,13,0,0,1-4.55,3.65,12.65,12.65,0,0,0,4-4.05,14.31,14.31,0,0,0,1.87-5.25,22.1,22.1,0,0,0,.11-5.57c-.09-.93-.24-1.85-.42-2.76-.09-.46-.2-.91-.31-1.35s-.25-.91-.38-1.28Z" transform="translate(-88.83 -135.29)"/><text class="cls-3" transform="translate(0.36 65.65)"><tspan class="cls-4">A</tspan><tspan x="53.57" y="0" xml:space="preserve">dh    an</tspan></text></svg>