<svg id="Layer_1" data-name="Layer 1" xmlns="http://www.w3.org/2000/svg" viewBox="0 0 319.68 75"><defs><style>.cls-1{fill:none;stroke:#231f20;stroke-miterlimit:10;stroke-width:5px;}.cls-2{fill:#231f20;}</style></defs><title>newsvg</title><circle class="cls-1" cx="190.68" cy="37.5" r="35"/><path class="cls-2" d="M244.52,170.25c5.83-.62,11.66-.94,17.5-1.17l2.18-.08,2.19-.06,4.38-.09c2.91,0,5.83-.06,8.75-.08s5.83,0,8.75.08,5.83.11,8.75.25c5.83.22,11.66.54,17.5,1.15v.18l-35,.09-35-.09Z" transform="translate(-88.83 -132.84)"/><polygon class="cls-2" points="191.56 2.5 190.68 72.5 189.81 2.5 191.56 2.5"/><path class="cls-2" d="M251.81,191.73c.77-5.25,1.9-10.45,3.15-15.61.65-2.58,1.36-5.15,2.1-7.7s1.61-5.09,2.52-7.6,1.88-5,3-7.47a65.57,65.57,0,0,1,3.75-7.2,32.89,32.89,0,0,1,5.14-6.6,16.08,16.08,0,0,1,3.56-2.63,10.32,10.32,0,0,1,4.57-1.25,9.83,9.83,0,0,1,4.63,1.12,15.31,15.31,0,0,1,3.62,2.61,31.27,31.27,0,0,1,5.08,6.65c.7,1.18,1.35,2.37,2,3.59s1.17,2.45,1.71,3.67,1,2.47,1.54,3.72.93,2.51,1.37,3.77c.87,2.53,1.7,5.06,2.43,7.63s1.42,5.13,2.06,7.7c1.24,5.17,2.35,10.36,3.22,15.6-3.2-10.11-6.35-20.22-10.27-30a94.57,94.57,0,0,0-6.85-14,29.36,29.36,0,0,0-4.62-5.87,11.85,11.85,0,0,0-2.8-2,6.32,6.32,0,0,0-3-.73,6.67,6.67,0,0,0-3,.83,12.53,12.53,0,0,0-2.8,2,31.39,31.39,0,0,0-4.68,5.85,96.29,96.29,0,0,0-7,13.9c-1,2.42-1.95,4.88-2.88,7.35s-1.79,5-2.65,7.46C254.9,181.6,253.33,186.65,251.81,191.73Z" transform="translate(-88.83 -132.84)"/><path class="cls-2" d="M252.61,150c-.12.38-.23.85-.33,1.29s-.19.89-.26,1.35c-.16.9-.28,1.82-.35,2.74a23.72,23.72,0,0,0,.19,5.52,17.6,17.6,0,0,0,.66,2.69,14.51,14.51,0,0,0,1.12,2.55,13.19,13.19,0,0,0,1.64,2.28,14.13,14.13,0,0,0,2.13,1.89A13.72,13.72,0,0,1,255,168.7a13,13,0,0,1-2-2.15,16.16,16.16,0,0,1-1.52-2.53,21.16,21.16,0,0,1-1-2.78,26.33,26.33,0,0,1-.93-5.86c0-1,0-2,0-3,0-.49.06-1,.11-1.49s.1-1,.2-1.53Z" transform="translate(-88.83 -132.84)"/><path class="cls-2" d="M309.13,149.32c.12.56.19,1.05.26,1.55s.12,1,.16,1.51c.08,1,.11,2,.09,3a23.48,23.48,0,0,1-.84,5.95,17.93,17.93,0,0,1-1.07,2.8,14.15,14.15,0,0,1-1.59,2.53,13,13,0,0,1-4.55,3.64,12.72,12.72,0,0,0,4-4,14.49,14.49,0,0,0,1.87-5.25,22.58,22.58,0,0,0,.11-5.57c-.1-.93-.24-1.85-.43-2.76-.09-.46-.2-.91-.31-1.35a11.53,11.53,0,0,0-.38-1.28Z" transform="translate(-88.83 -132.84)"/><path class="cls-2" d="M128.65,189.28h-25.2l-5,11.66H88.83l22.68-50.4h9.22l22.75,50.4h-9.79Zm-3.1-7.35-9.5-22-9.44,22Z" transform="translate(-88.83 -132.84)"/><path class="cls-2" d="M186.32,147.52v53.42h-8.64v-5a14,14,0,0,1-5.51,4.11,18.64,18.64,0,0,1-7.24,1.36A20.28,20.28,0,0,1,155,199a17.66,17.66,0,0,1-7-6.95,22.37,22.37,0,0,1,0-20.63,17.63,17.63,0,0,1,7-6.91,20.29,20.29,0,0,1,10-2.45,18.17,18.17,0,0,1,7,1.3,14.1,14.1,0,0,1,5.4,3.88V147.52Zm-14.47,44.74a10.65,10.65,0,0,0,4.1-4.21,14,14,0,0,0,0-12.67,10.72,10.72,0,0,0-4.1-4.21,12.24,12.24,0,0,0-11.67,0,10.65,10.65,0,0,0-4.1,4.21,14,14,0,0,0,0,12.67,10.59,10.59,0,0,0,4.1,4.21,12.24,12.24,0,0,0,11.67,0Z" transform="translate(-88.83 -132.84)"/><path class="cls-2" d="M231.61,166.31q4.38,4.24,4.39,12.6v22h-9V180.06q0-5-2.38-7.6a8.79,8.79,0,0,0-6.77-2.55,10.35,10.35,0,0,0-7.84,3q-2.88,3-2.88,8.6v19.44h-9V147.52h9V167a14.52,14.52,0,0,1,5.5-3.64,20.24,20.24,0,0,1,7.31-1.26Q227.21,162.06,231.61,166.31Z" transform="translate(-88.83 -132.84)"/><path class="cls-2" d="M354.61,166.13q4.5,4.06,4.5,12.27v22.54h-8.49v-4.68a10.52,10.52,0,0,1-4.72,3.85,18.4,18.4,0,0,1-7.38,1.33A18.14,18.14,0,0,1,331,200a11.63,11.63,0,0,1-5-4.11,10.38,10.38,0,0,1-1.77-5.94,10.18,10.18,0,0,1,3.86-8.31q3.84-3.13,12.13-3.13h9.93v-.58a7.86,7.86,0,0,0-2.41-6.19c-1.61-1.44-4-2.16-7.16-2.16a20.4,20.4,0,0,0-6.37,1,15.63,15.63,0,0,0-5.3,2.8l-3.52-6.55a22,22,0,0,1,7.27-3.53,32.56,32.56,0,0,1,9-1.22Q350.11,162.06,354.61,166.13Zm-8.2,27.21a8.39,8.39,0,0,0,3.7-4.42v-4.47h-9.28q-7.79,0-7.78,5.11a4.59,4.59,0,0,0,1.94,3.89,8.93,8.93,0,0,0,5.4,1.44A11.58,11.58,0,0,0,346.41,193.34Z" transform="translate(-88.83 -132.84)"/><path class="cls-2" d="M404.11,166.31q4.39,4.24,4.4,12.6v22h-9V180.06c0-3.36-.8-5.89-2.38-7.6a8.79,8.79,0,0,0-6.77-2.55,10.37,10.37,0,0,0-7.85,3q-2.88,3-2.88,8.6v19.44h-9V162.49h8.57v5a14,14,0,0,1,5.62-4,20.22,20.22,0,0,1,7.63-1.37Q399.73,162.06,404.11,166.31Z" transform="translate(-88.83 -132.84)"/></svg>